HIERARCHY
ROOT Hips
{
	OFFSET 0.00 0.00 0.00
	CHANNELS 6 Xposition Yposition Zposition Xrotation Yrotation Zrotation
	JOINT Spine
	{
		OFFSET 0.00000 0.84964 1.27446
		CHANNELS 3 Xrotation Yrotation Zrotation
		JOINT Spine1
		{
			OFFSET 0.00000 0.29508 1.67346
			CHANNELS 3 Xrotation Yrotation Zrotation
			JOINT Spine2
			{
				OFFSET 0.00000 0.14810 1.69281
				CHANNELS 3 Xrotation Yrotation Zrotation
				JOINT Spine3
				{
					OFFSET 0.00000 0.00000 1.69928
					CHANNELS 3 Xrotation Yrotation Zrotation
					JOINT Neck
					{
						OFFSET 0.00000 -0.63723 4.46061
						CHANNELS 3 Xrotation Yrotation Zrotation
						JOINT Head
						{
							OFFSET 0.00000 -0.40573 2.30101
							CHANNELS 3 Xrotation Yrotation Zrotation
							End Site
							{
								OFFSET 0.00000 0.00000 2.75071
							}
						}
					}
					JOINT RightShoulder
					{
						OFFSET -0.72014 -1.20022 3.88874
						CHANNELS 3 Xrotation Yrotation Zrotation
						JOINT RightArm
						{
							OFFSET -3.57668 0.00000 0.00000
							CHANNELS 3 Xrotation Yrotation Zrotation
							JOINT RightForeArm
							{
								OFFSET -5.92485 0.00000 0.00000
								CHANNELS 3 Xrotation Yrotation Zrotation
								JOINT RightHand
								{
									OFFSET -6.63013 0.00000 0.00000
									CHANNELS 3 Xrotation Yrotation Zrotation
									JOINT RightHandEnd
									{
										OFFSET -1.65321 0.00000 0.00000
										CHANNELS 3 Xrotation Yrotation Zrotation
										End Site
										{
											OFFSET -1.65321 0.00000 0.00000
										}
									}
									JOINT RightHandThumb1
									{
										OFFSET -0.66129 -1.10214 -0.44086
										CHANNELS 3 Yrotation Xrotation Zrotation
										End Site
										{
											OFFSET -1.59688 -0.42788 0.00000
										}
									}
								}
							}
						}
					}
					JOINT LeftShoulder
					{
						OFFSET 0.72014 -1.20022 3.88874
						CHANNELS 3 Xrotation Yrotation Zrotation
						JOINT LeftArm
						{
							OFFSET 3.57668 0.00000 0.00000
							CHANNELS 3 Xrotation Yrotation Zrotation
							JOINT LeftForeArm
							{
								OFFSET 5.92485 0.00000 0.00000
								CHANNELS 3 Xrotation Yrotation Zrotation
								JOINT LeftHand
								{
									OFFSET 6.63013 0.00000 0.00000
									CHANNELS 3 Xrotation Yrotation Zrotation
									JOINT LeftHandEnd
									{
										OFFSET 1.65321 0.00000 0.00000
										CHANNELS 3 Xrotation Yrotation Zrotation
										End Site
										{
											OFFSET 1.65321 0.00000 0.00000
										}
									}
									JOINT LeftHandThumb1
									{
										OFFSET 0.66129 -1.10214 -0.44086
										CHANNELS 3 Yrotation Xrotation Zrotation
										End Site
										{
											OFFSET 1.59688 -0.42788 0.00000
										}
									}
								}
							}
						}
					}
				}
			}
		}
	}
	JOINT RightUpLeg
	{
		OFFSET -2.13640 0.00000 -0.62412
		CHANNELS 3 Xrotation Yrotation Zrotation
		JOINT RightLeg
		{
			OFFSET 0.00000 0.00000 -11.49360
			CHANNELS 3 Xrotation Yrotation Zrotation
			JOINT RightFoot
			{
				OFFSET 0.00000 0.00000 -8.79036
				CHANNELS 3 Xrotation Yrotation Zrotation
				JOINT RightToeBase
				{
					OFFSET 0.00000 -3.94625 -1.43632
					CHANNELS 3 Xrotation Yrotation Zrotation
					End Site
					{
						OFFSET 0.00000 -1.72833 -0.00000
					}
				}
			}
		}
	}
	JOINT LeftUpLeg
	{
		OFFSET 2.13640 0.00000 -0.62412
		CHANNELS 3 Xrotation Yrotation Zrotation
		JOINT LeftLeg
		{
			OFFSET 0.00000 0.00000 -11.49360
			CHANNELS 3 Xrotation Yrotation Zrotation
			JOINT LeftFoot
			{
				OFFSET 0.00000 0.00000 -8.79036
				CHANNELS 3 Xrotation Yrotation Zrotation
				JOINT LeftToeBase
				{
					OFFSET 0.00000 -3.94625 -1.43632
					CHANNELS 3 Xrotation Yrotation Zrotation
					End Site
					{
						OFFSET 0.00000 -1.72833 -0.00000
					}
				}
			}
		}
	}
}
MOTION
Frames: 13
Frame Time: 0.008342
 -2.4297 -7.8617 23.4969 -3.8949 -6.6022 -172.8698 2.6192 -6.2775 0.2585 0.5029 0.0182 -0.1332 -2.3714 0.7683 -0.8237 -1.5307 4.7470 -1.4122 -5.0250 1.2152 -3.4967 -2.0787 -2.7749 -9.8579 -4.2754 8.9178 -1.0416 -15.0749 -10.3158 -14.6142 0.0000 0.0000 9.2069 13.6681 -2.8661 -9.5689 -0.0000 -0.0000 -0.0000 -0.0000 -0.0000 -0.0000 -5.7374 -10.7812 1.0405 -10.8214 12.8763 -0.7856 -0.0000 -0.0000 -9.3606 -1.6824 -19.0080 12.4156 0.0000 -0.0000 0.0000 -0.0000 -0.0000 0.0000 -3.7819 -9.5651 -63.0793 2.4968 0.0000 0.0000 -11.5981 -0.1449 43.7026 -0.4791 0.0000 -0.0000 -6.5098 -8.8499 10.3694 5.4557 0.0000 0.0000 4.1554 -30.0588 -11.2222 -51.9067 0.0000 -0.0000
 -2.4342 -7.8593 23.4966 -3.8968 -6.6165 -172.8148 2.6142 -6.2744 0.2576 0.5022 0.0202 -0.1371 -2.3773 0.7728 -0.8619 -1.5243 4.7515 -1.4193 -4.9832 1.2388 -3.6365 -2.0493 -2.7540 -10.2137 -4.3016 8.8740 -1.0653 -15.1165 -10.3012 -14.6096 0.0000 0.0000 9.1975 13.6548 -2.9093 -9.5663 0.0000 0.0000 0.0000 -0.0000 -0.0000 0.0000 -5.7677 -10.8012 1.0481 -10.8499 12.8801 -0.7861 -0.0000 -0.0000 -9.3563 -1.6937 -19.0291 12.4101 0.0000 -0.0000 -0.0000 0.0000 0.0000 -0.0000 -3.7785 -9.5678 -63.1118 2.4904 0.0000 0.0000 -11.5992 -0.1624 43.6868 -0.4752 0.0000 -0.0000 -6.4991 -8.8380 10.3911 5.3943 0.0000 0.0000 3.9728 -30.3641 -11.3915 -51.7213 0.0000 -0.0000
 -2.4402 -7.8561 23.4959 -3.8988 -6.6434 -172.7483 2.6073 -6.2829 0.2557 0.5015 0.0283 -0.1364 -2.3859 0.7756 -0.9113 -1.5131 4.7590 -1.4314 -4.9268 1.2706 -3.8202 -2.0136 -2.7281 -10.6857 -4.3395 8.8159 -1.0940 -15.1611 -10.2829 -14.6011 0.0000 0.0000 9.1863 13.6420 -2.9545 -9.5508 -0.0000 -0.0000 0.0000 -0.0000 -0.0000 0.0000 -5.8068 -10.8307 1.0621 -10.8855 12.8883 -0.7863 -0.0000 -0.0000 -9.3526 -1.7048 -19.0602 12.4117 0.0000 0.0000 0.0000 0.0000 -0.0000 0.0000 -3.7731 -9.5813 -63.1429 2.4749 0.0000 0.0000 -11.5889 -0.1873 43.6674 -0.4755 0.0000 -0.0000 -6.4845 -8.8290 10.4264 5.3157 0.0000 0.0000 3.6830 -30.8313 -11.6594 -51.4220 0.0000 -0.0000
 -2.4476 -7.8521 23.4949 -3.9016 -6.6789 -172.6637 2.5978 -6.2935 0.2456 0.5011 0.0390 -0.1385 -2.3969 0.7768 -0.9679 -1.4983 4.7642 -1.4444 -4.8549 1.3114 -4.0480 -1.9727 -2.6946 -11.2720 -4.3837 8.7401 -1.1309 -15.2101 -10.2537 -14.5842 0.0000 0.0000 9.1771 13.6288 -3.0068 -9.5291 -0.0000 -0.0000 -0.0000 -0.0000 -0.0000 -0.0000 -5.8543 -10.8685 1.0832 -10.9290 12.9043 -0.7871 -0.0000 -0.0000 -9.3466 -1.7134 -19.1082 12.4148 0.0000 -0.0000 0.0000 -0.0000 -0.0000 0.0000 -3.7676 -9.5992 -63.1710 2.4551 0.0000 0.0000 -11.5739 -0.2158 43.6335 -0.4801 0.0000 -0.0000 -6.4657 -8.8179 10.4713 5.2147 0.0000 0.0000 3.3015 -31.4455 -12.0216 -51.0292 0.0000 -0.0000
 -2.4567 -7.8474 23.4936 -3.9063 -6.7164 -172.5708 2.5859 -6.3041 0.2353 0.5009 0.0470 -0.1421 -2.4093 0.7803 -1.0327 -1.4812 4.7764 -1.4586 -4.7658 1.3598 -4.3166 -1.9287 -2.6617 -11.9635 -4.4344 8.6481 -1.1721 -15.2566 -10.2220 -14.5603 0.0000 0.0000 9.1662 13.6175 -3.0508 -9.4931 -0.0000 -0.0000 0.0000 -0.0000 -0.0000 -0.0000 -5.9060 -10.9082 1.1140 -10.9772 12.9142 -0.7922 -0.0000 -0.0000 -9.3409 -1.7172 -19.1652 12.4291 -0.0000 0.0000 -0.0000 -0.0000 -0.0000 0.0000 -3.7631 -9.6133 -63.1869 2.4359 0.0000 0.0000 -11.5595 -0.2450 43.5818 -0.4894 0.0000 -0.0000 -6.4411 -8.7991 10.5201 5.0930 0.0000 0.0000 2.8624 -32.1710 -12.4419 -50.5789 0.0000 -0.0000
 -2.4670 -7.8420 23.4921 -3.9111 -6.7664 -172.4669 2.5707 -6.3266 0.2202 0.5006 0.0596 -0.1448 -2.4221 0.7831 -1.1037 -1.4589 4.7887 -1.4763 -4.6631 1.4166 -4.6208 -1.8820 -2.6272 -12.7458 -4.4921 8.5494 -1.2197 -15.3029 -10.1940 -14.5300 0.0000 0.0000 9.1585 13.6120 -3.0848 -9.4479 -0.0000 0.0000 0.0000 -0.0000 -0.0000 0.0000 -5.9641 -10.9574 1.1499 -11.0285 12.9321 -0.7924 -0.0000 -0.0000 -9.3375 -1.7164 -19.2361 12.4508 0.0000 0.0000 -0.0000 0.0000 -0.0000 0.0000 -3.7581 -9.6380 -63.2011 2.4096 0.0000 0.0000 -11.5347 -0.2760 43.5151 -0.5031 0.0000 -0.0000 -6.4142 -8.7864 10.5679 4.9577 0.0000 0.0000 2.3902 -32.9636 -12.8963 -50.1138 0.0000 -0.0000
 -2.4784 -7.8360 23.4906 -3.9172 -6.8159 -172.3591 2.5522 -6.3468 0.2043 0.5004 0.0716 -0.1476 -2.4322 0.7865 -1.1787 -1.4346 4.8031 -1.4947 -4.5490 1.4754 -4.9538 -1.8327 -2.5869 -13.6019 -4.5528 8.4381 -1.2738 -15.3463 -10.1620 -14.4918 0.0000 0.0000 9.1546 13.6115 -3.1140 -9.3943 0.0000 0.0000 0.0000 -0.0000 -0.0000 0.0000 -6.0237 -11.0047 1.1930 -11.0818 12.9456 -0.7970 -0.0000 -0.0000 -9.3319 -1.7108 -19.3177 12.4732 0.0000 0.0000 -0.0000 0.0000 0.0000 0.0000 -3.7536 -9.6584 -63.2068 2.3835 0.0000 0.0000 -11.5101 -0.3047 43.4292 -0.5204 0.0000 -0.0000 -6.3835 -8.7690 10.6045 4.8106 0.0000 0.0000 1.9409 -33.7562 -13.3300 -49.6889 0.0000 -0.0000
 -2.4906 -7.8296 23.4891 -3.9239 -6.8651 -172.2496 2.5314 -6.3661 0.1880 0.4997 0.0839 -0.1502 -2.4412 0.7906 -1.2565 -1.4055 4.8185 -1.5156 -4.4262 1.5388 -5.3067 -1.7835 -2.5489 -14.5087 -4.6172 8.3231 -1.3322 -15.3863 -10.1360 -14.4476 0.0000 0.0000 9.1548 13.6190 -3.1288 -9.3329 -0.0000 -0.0000 -0.0000 -0.0000 -0.0000 0.0000 -6.0852 -11.0541 1.2424 -11.1328 12.9606 -0.8000 -0.0000 -0.0000 -9.3305 -1.6990 -19.4042 12.5035 0.0000 0.0000 -0.0000 -0.0000 -0.0000 0.0000 -3.7495 -9.6754 -63.2101 2.3592 0.0000 0.0000 -11.4858 -0.3304 43.3284 -0.5388 0.0000 -0.0000 -6.3492 -8.7505 10.6295 4.6540 0.0000 0.0000 1.5549 -34.4885 -13.7072 -49.3523 0.0000 -0.0000
 -2.5036 -7.8228 23.4878 -3.9321 -6.9074 -172.1449 2.5083 -6.3794 0.1753 0.4987 0.0937 -0.1519 -2.4478 0.7968 -1.3344 -1.3726 4.8373 -1.5384 -4.2973 1.6015 -5.6720 -1.7355 -2.5110 -15.4447 -4.6834 8.2051 -1.3952 -15.4230 -10.1165 -14.3987 0.0000 0.0000 9.1601 13.6339 -3.1294 -9.2657 0.0000 0.0000 0.0000 -0.0000 -0.0000 0.0000 -6.1465 -11.0989 1.2971 -11.1790 12.9693 -0.8055 -0.0000 -0.0000 -9.3316 -1.6833 -19.4898 12.5383 0.0000 -0.0000 -0.0000 0.0000 -0.0000 0.0000 -3.7461 -9.6820 -63.2100 2.3408 0.0000 0.0000 -11.4659 -0.3518 43.2162 -0.5566 0.0000 -0.0000 -6.3107 -8.7269 10.6415 4.4903 0.0000 0.0000 1.2725 -35.1017 -13.9883 -49.1417 0.0000 -0.0000
 -2.5170 -7.8158 23.4869 -3.9409 -6.9426 -172.0414 2.4824 -6.3829 0.1564 0.4981 0.1047 -0.1553 -2.4508 0.8009 -1.4091 -1.3379 4.8499 -1.5577 -4.1658 1.6671 -6.0413 -1.6897 -2.4737 -16.3901 -4.7491 8.0811 -1.4613 -15.4554 -10.0897 -14.3428 0.0000 0.0000 9.1713 13.6481 -3.1302 -9.1965 -0.0000 -0.0000 0.0000 -0.0000 -0.0000 0.0000 -6.2068 -11.1370 1.3607 -11.2205 12.9807 -0.8178 -0.0000 -0.0000 -9.3347 -1.6611 -19.5762 12.5753 0.0000 0.0000 0.0000 -0.0000 -0.0000 0.0000 -3.7424 -9.6801 -63.2163 2.3253 0.0000 0.0000 -11.4481 -0.3702 43.0985 -0.5721 0.0000 -0.0000 -6.2700 -8.7001 10.6392 4.3227 0.0000 0.0000 1.1103 -35.5552 -14.1581 -49.0710 0.0000 -0.0000
 -2.5307 -7.8087 23.4866 -3.9532 -6.9647 -171.9476 2.4544 -6.3749 0.1438 0.4927 0.1111 -0.1592 -2.4466 0.8099 -1.4788 -1.3018 4.8649 -1.5800 -4.0338 1.7269 -6.4077 -1.6468 -2.4364 -17.3276 -4.8156 7.9528 -1.5328 -15.4807 -10.0662 -14.2783 0.0000 0.0000 9.1850 13.6618 -3.1214 -9.1264 0.0000 -0.0000 -0.0000 -0.0000 -0.0000 -0.0000 -6.2655 -11.1634 1.4275 -11.2565 12.9803 -0.8338 -0.0000 -0.0000 -9.3416 -1.6367 -19.6516 12.6132 -0.0000 0.0000 -0.0000 0.0000 0.0000 0.0000 -3.7392 -9.6649 -63.2392 2.3108 0.0000 0.0000 -11.4321 -0.3888 42.9968 -0.5846 0.0000 -0.0000 -6.2291 -8.6652 10.6209 4.1542 0.0000 0.0000 1.0754 -35.8248 -14.2014 -49.1268 0.0000 -0.0000
 -2.5446 -7.8015 23.4869 -3.9636 -6.9736 -171.8648 2.4264 -6.3557 0.1286 0.4957 0.1236 -0.1579 -2.4468 0.8117 -1.5469 -1.2642 4.8766 -1.5954 -3.9028 1.7857 -6.7672 -1.6076 -2.3982 -18.2437 -4.8820 7.8272 -1.6035 -15.5041 -10.0406 -14.2175 0.0000 0.0000 9.2070 13.6720 -3.1146 -9.0584 0.0000 0.0000 0.0000 -0.0000 -0.0000 0.0000 -6.3229 -11.1830 1.5014 -11.2884 12.9870 -0.8601 -0.0000 -0.0000 -9.3470 -1.6083 -19.7225 12.6459 -0.0000 -0.0000 0.0000 0.0000 -0.0000 0.0000 -3.7329 -9.6346 -63.2492 2.3056 0.0000 0.0000 -11.4222 -0.4036 42.8878 -0.5914 0.0000 -0.0000 -6.1801 -8.6232 10.6129 3.9796 0.0000 0.0000 1.1276 -35.9177 -14.1658 -49.2637 0.0000 -0.0000
 -2.5589 -7.7940 23.4879 -3.9546 -6.9612 -171.7954 2.4280 -6.3181 0.1222 0.4840 0.1301 -0.1587 -2.4373 0.8146 -1.6038 -1.2280 4.8896 -1.6136 -3.7744 1.8372 -7.1136 -1.5703 -2.3554 -19.1304 -4.9486 7.7030 -1.6749 -15.5218 -10.0161 -14.1520 0.0000 0.0000 9.2303 13.6745 -3.1081 -8.9955 0.0000 0.0000 -0.0000 0.0000 -0.0000 0.0000 -6.3791 -11.1839 1.5759 -11.3162 12.9787 -0.8890 -0.0000 -0.0000 -9.3583 -1.5811 -19.7735 12.6811 0.0000 -0.0000 0.0000 -0.0000 -0.0000 0.0000 -3.7032 -9.5826 -63.2544 2.3113 0.0000 0.0000 -11.4208 -0.4200 42.7905 -0.5920 0.0000 -0.0000 -6.1001 -8.5658 10.6050 3.7925 0.0000 0.0000 1.2373 -35.8558 -14.0666 -49.4116 0.0000 -0.0000
